<?xml version="1.0" encoding="UTF-8"?>
<svg id="Layer_1" xmlns="http://www.w3.org/2000/svg" width="26" height="26" version="1.1" xmlns:xlink="http://www.w3.org/1999/xlink" viewBox="0 0 26 26">
  <!-- Generator: Adobe Illustrator 29.2.1, SVG Export Plug-In . SVG Version: 2.1.0 Build 116)  -->
  <defs>
    <style>
      .st0 {
        fill: #ec1c24;
      }
    </style>
  </defs>
  <polygon class="st0" points="17.29 14.61 18.32 9.87 14.22 9.87 15.22 5.16 20.17 5.16 21.21 .31 10.34 .31 4.89 25.69 15.9 25.69 16.93 20.91 11.84 20.91 13.19 14.61 17.29 14.61"/>
  <path class="st0" d="M20.73,16.72c-.11,0-.21-.05-.28-.14-.12-.16-.1-.38.06-.51l3.87-3.07-3.87-3.07c-.16-.12-.18-.35-.06-.51.12-.16.35-.18.51-.06l4.23,3.36c.09.07.14.17.14.28s-.05.22-.14.28l-4.23,3.36c-.07.05-.15.08-.23.08Z"/>
  <path class="st0" d="M5.27,16.72c.11,0,.21-.05.28-.14.12-.16.1-.38-.06-.51l-3.87-3.07,3.87-3.07c.16-.12.18-.35.06-.51-.12-.16-.35-.18-.51-.06L.82,12.72c-.09.07-.14.17-.14.28,0,.11.05.22.14.28l4.23,3.36c.07.05.15.08.23.08Z"/>
</svg>