<?xml version="1.0" encoding="UTF-8"?>
<svg id="Layer_1" xmlns="http://www.w3.org/2000/svg" width="109.8" height="26" version="1.1" xmlns:xlink="http://www.w3.org/1999/xlink" viewBox="0 0 109.8 26">
  <!-- Премахнат <defs> и <style> -->
  <path fill="#ec1c24" d="M11.4,25.2H.8L6.1.8h10.5l-1,4.7h-4.8l-1,4.5h3.9l-1,4.6h-3.9l-1.3,6.1h4.9l-1,4.6h0ZM24.1,25.2h-10.8L18.5.8h5.7l-4.3,19.8h5.1l-1,4.6h0ZM40.5,5.4h-3.2l-4.3,19.8h-5.6l4.3-19.8h-3.2l1-4.6h12l-1,4.6h0ZM51.5,25.2h-5.5l2.1-9.8h-2.3l-2.1,9.8h-5.7L43.2.8h9.7l3.1,3.5-1.4,6.4-3.3,2.4,2.3,2.3-2.1,9.8h0ZM49.1,10.8l1.2-5.4h-2.3l-1.2,5.4h2.3ZM67.8,25.2h-5.6l.5-4.5h-3.3l-1.4,4.5h-5.6L61.1.8h8.2l-1.6,24.4h0ZM63.3,16.1l1.1-10.1h-.5l-3.1,10.1h2.5ZM83.2,21.7l-4.4,3.5h-10L74.1.8h9.8l3.1,3.5-3.7,17.3h0ZM77.8,20.6l3.3-15.2h-2.3l-3.3,15.2h2.3ZM95.7,25.2h-10.6L90.3.8h10.5l-1,4.7h-4.8l-1,4.5h3.9l-1,4.6h-3.9l-1.3,6.1h4.9l-1,4.6h0Z"/>
  <path fill="#ec1c24" fill-rule="evenodd" d="M106.4,1.5c.4,0,.8.1,1.2.3.4.2.7.5.9.9.2.4.3.8.3,1.3s-.1.9-.3,1.3c-.2.4-.5.7-.9.9-.4.2-.8.3-1.3.3s-.9-.1-1.3-.3c-.4-.2-.7-.5-.9-.9-.2-.4-.3-.8-.3-1.3s.1-.9.3-1.3c.2-.4.5-.7,1-.9.4-.2.8-.3,1.2-.3h0ZM106.4,1.9c-.4,0-.7,0-1,.3-.3.2-.6.4-.8.8-.2.3-.3.7-.3,1.1s0,.7.3,1c.2.3.4.6.8.8s.7.3,1.1.3.7,0,1.1-.3.6-.4.8-.8c.2-.3.3-.7.3-1s0-.7-.3-1.1c-.2-.3-.5-.6-.8-.8-.3-.2-.7-.3-1-.3h0ZM105.3,5.4v-2.7h.9c.3,0,.6,0,.7,0,.1,0,.3.1.3.3,0,.1.1.3.1.4s0,.4-.2.5c-.1.1-.3.2-.6.2,0,0,.2,0,.2.1.1.1.2.3.4.5l.3.5h-.5l-.2-.4c-.2-.3-.3-.5-.5-.6,0,0-.2,0-.4,0h-.3v1.2h-.4ZM105.7,3.9h.5c.3,0,.4,0,.5-.1,0,0,.1-.2.1-.3s0-.2,0-.2c0,0-.1-.1-.2-.1,0,0-.2,0-.4,0h-.5v.8h0Z"/>
</svg>